<svg width="100%" height="100%" id="svg" viewBox="0 0 1440 400" xmlns="http://www.w3.org/2000/svg" class="transition duration-300 ease-in-out delay-150"><defs><linearGradient id="gradient" x1="2%" y1="65%" x2="98%" y2="35%"><stop offset="5%" stop-color="#f9222088"></stop><stop offset="95%" stop-color="#ff690088"></stop></linearGradient></defs><path d="M 0,400 C 0,400 0,133 0,133 C 180,149.13333333333333 360,165.26666666666668 512,160 C 664,154.73333333333332 788,128.06666666666666 938,120 C 1088,111.93333333333334 1264,122.46666666666667 1440,133 C 1440,133 1440,400 1440,400 Z" stroke="none" stroke-width="0" fill="url(#gradient)" class="transition-all duration-300 ease-in-out delay-150 path-0"></path><defs><linearGradient id="gradient" x1="2%" y1="65%" x2="98%" y2="35%"><stop offset="5%" stop-color="#f92220ff"></stop><stop offset="95%" stop-color="#ff6900ff"></stop></linearGradient></defs><path d="M 0,400 C 0,400 0,266 0,266 C 163.46666666666664,234.66666666666669 326.9333333333333,203.33333333333334 474,218 C 621.0666666666667,232.66666666666666 751.7333333333333,293.3333333333333 910,309 C 1068.2666666666667,324.6666666666667 1254.1333333333332,295.33333333333337 1440,266 C 1440,266 1440,400 1440,400 Z" stroke="none" stroke-width="0" fill="url(#gradient)" class="transition-all duration-300 ease-in-out delay-150 path-1"></path></svg>
