<svg width="100%" height="100%" id="svg" viewBox="0 0 1440 600" xmlns="http://www.w3.org/2000/svg" class="transition duration-300 ease-in-out delay-150"><defs><linearGradient id="gradient" x1="0%" y1="50%" x2="100%" y2="50%"><stop offset="5%" stop-color="#002bdc88"></stop><stop offset="95%" stop-color="#32ded488"></stop></linearGradient></defs><path d="M 0,600 C 0,600 0,200 0,200 C 103.19617224880383,175.68421052631578 206.39234449760767,151.3684210526316 289,166 C 371.60765550239233,180.6315789473684 433.62679425837325,234.21052631578948 543,242 C 652.3732057416267,249.78947368421052 809.1004784688994,211.78947368421052 911,182 C 1012.8995215311006,152.21052631578948 1059.9712918660289,130.6315789473684 1139,135 C 1218.0287081339711,139.3684210526316 1329.0143540669856,169.68421052631578 1440,200 C 1440,200 1440,600 1440,600 Z" stroke="none" stroke-width="0" fill="url(#gradient)" class="transition-all duration-300 ease-in-out delay-150 path-0"></path><defs><linearGradient id="gradient" x1="0%" y1="50%" x2="100%" y2="50%"><stop offset="5%" stop-color="#002bdcff"></stop><stop offset="95%" stop-color="#32ded4ff"></stop></linearGradient></defs><path d="M 0,600 C 0,600 0,400 0,400 C 98.96650717703349,398.7464114832536 197.93301435406698,397.49282296650716 295,385 C 392.066985645933,372.50717703349284 487.23444976076564,348.77511961722485 589,358 C 690.7655502392344,367.22488038277515 799.1291866028707,409.40669856459334 894,401 C 988.8708133971293,392.59330143540666 1070.2488038277513,333.5980861244019 1159,325 C 1247.7511961722487,316.4019138755981 1343.8755980861242,358.20095693779905 1440,400 C 1440,400 1440,600 1440,600 Z" stroke="none" stroke-width="0" fill="url(#gradient)" class="transition-all duration-300 ease-in-out delay-150 path-1"></path></svg>
